<svg height="512pt" viewBox="0 0 512 512" width="512pt" xmlns="http://www.w3.org/2000/svg"><path d="M511.035 278.21c.63-7.347.965-14.75.965-22.206 0-68.383-26.629-132.672-74.98-181.024C388.668 26.63 324.379 0 256 0S123.332 26.629 74.98 74.98C26.63 123.332 0 187.621 0 256.004c0 68.379 26.629 132.664 74.98 181.016C123.332 485.37 187.621 512 256 512s132.668-26.629 181.02-74.98c42.683-42.684 68.425-97.793 73.878-157.168.075-.547.125-1.094.137-1.641zm-29.058-20.526c-30.79-8.7-62.66-13.114-95.016-13.114-21.824 0-43.344 2.04-64.332 5.97-3.3-7.692-6.692-15.349-10.188-22.962a991.01 991.01 0 00-14.66-30.46c48.48-20.946 94-47.993 135.82-80.727C463.903 154.85 482 203.35 482 256.004c0 .562-.02 1.117-.023 1.68zm-68.52-163.637c-39.926 30.98-83.57 56.535-129.676 76.215a987.924 987.924 0 00-86.176-132.598A225.547 225.547 0 01256 30c61.168 0 116.727 24.437 157.457 64.047zM167.652 47.992a954.682 954.682 0 0187.977 133.45c-64.817 23.828-133.813 36.34-203.692 36.34-6.21 0-12.437-.106-18.64-.298C46.48 141.035 98.19 77.605 167.652 47.992zM30 256.004c0-2.887.07-5.754.18-8.613 7.234.25 14.507.39 21.754.39 73.035 0 144.539-12.582 212.53-37.39 1.778-.649 3.552-1.313 5.321-1.977a960.064 960.064 0 0123.043 49.078 348.993 348.993 0 00-202.43 152.125C52.941 369.27 30 315.27 30 256.004zm82.723 174.644a319.012 319.012 0 01191.746-145.234c22.34 56.078 39.355 114.258 50.656 173.652C325.18 473.742 291.535 482 256 482c-54.34 0-104.254-19.281-143.277-51.352zm269.855 12.489a979.574 979.574 0 00-48.297-164.188 319.299 319.299 0 0152.68-4.379c31.648 0 62.781 4.61 92.726 13.7-9.23 64.28-45.601 119.917-97.109 154.867zm0 0"/></svg>